<?xml version="1.0" encoding="UTF-8" standalone="no"?>
<svg
   xmlns:dc="http://purl.org/dc/elements/1.1/"
   xmlns:cc="http://creativecommons.org/ns#"
   xmlns:rdf="http://www.w3.org/1999/02/22-rdf-syntax-ns#"
   xmlns:svg="http://www.w3.org/2000/svg"
   xmlns="http://www.w3.org/2000/svg"
   xmlns:sodipodi="http://sodipodi.sourceforge.net/DTD/sodipodi-0.dtd"
   xmlns:inkscape="http://www.inkscape.org/namespaces/inkscape"
   height="144"
   width="144"
   version="1.1"
   id="svg6"
   sodipodi:docname="rust-logo-lu.svg"
   inkscape:version="0.92.1 r15371">
  <metadata
     id="metadata12">
    <rdf:RDF>
      <cc:Work
         rdf:about="">
        <dc:format>image/svg+xml</dc:format>
        <dc:type
           rdf:resource="http://purl.org/dc/dcmitype/StillImage" />
        <dc:title></dc:title>
      </cc:Work>
    </rdf:RDF>
  </metadata>
  <defs
     id="defs10" />
  <sodipodi:namedview
     pagecolor="#ffffff"
     bordercolor="#666666"
     borderopacity="1"
     objecttolerance="10"
     gridtolerance="10"
     guidetolerance="10"
     inkscape:pageopacity="0"
     inkscape:pageshadow="2"
     inkscape:window-width="1600"
     inkscape:window-height="803"
     id="namedview8"
     showgrid="false"
     inkscape:zoom="2.3177389"
     inkscape:cx="57.703927"
     inkscape:cy="83.066964"
     inkscape:window-x="0"
     inkscape:window-y="27"
     inkscape:window-maximized="1"
     inkscape:current-layer="svg6" />
  <path
     inkscape:connector-curvature="0"
     style="fill:#fbc707;fill-opacity:1;fill-rule:nonzero;stroke:none;stroke-width:0.55358648"
     d="M 46.621768,105.57694 C 44.673142,103.70416 40.453152,99.285473 37.982497,96.936055 36.481723,95.508908 36.488367,93.637247 37.186439,91.686397 41.02999,80.937963 49.164943,58.774028 49.624973,57.483616 50.118218,56.099645 49.553003,55.392158 48.21831,54.76716 45.444289,53.467335 42.003748,51.980962 42.003748,51.980962 l 1.588793,-4.340119 h 25.536947 c 0,0 -7.651123,25.509258 -11.183557,37.201569 -0.484387,1.603731 0.395814,2.089782 1.695636,3.269485 1.124337,1.020806 1.465344,1.335248 2.806689,2.578042 1.557236,1.442093 2.516593,1.529553 4.329601,0.844224 5.063649,-1.914857 15.873528,-6.068963 20.375843,-7.812766 1.970218,-0.763394 2.676595,-2.215449 2.698741,-4.942423 0.143364,-17.654418 0.181018,-31.138131 0.181018,-31.138131 h 9.301391 c 0,0 -0.002,24.544912 -0.002,37.239203 0,2.088141 -0.220885,3.074077 -2.74635,3.810338 -18.789129,5.478855 -30.200209,10.718541 -43.112608,17.470596 -2.376548,1.24226 -4.918617,1.27381 -6.852294,-0.58404"
     id="path19657" />
  <path
     style="fill:#000000"
     d="M 71.050781 23.679688 C 44.990781 23.679688 23.779297 44.899219 23.779297 70.949219 C 23.779297 96.999219 45.000781 118.2207 71.050781 118.2207 C 97.100781 118.2207 118.32031 96.999219 118.32031 70.949219 C 118.32031 44.899219 97.100781 23.679688 71.050781 23.679688 z M 63.949219 33 L 68.740234 38.019531 C 69.280234 38.584529 69.996953 38.879024 70.720703 38.896484 C 71.444453 38.913945 72.175234 38.654375 72.740234 38.109375 L 78.099609 33 C 80.862165 33.517436 83.532971 34.332606 86.072266 35.416016 C 88.61156 36.499426 91.019389 37.850598 93.255859 39.443359 C 95.49233 41.036121 97.558024 42.870525 99.412109 44.916016 C 101.26619 46.961506 102.90864 49.218559 104.30078 51.660156 L 100.63086 59.939453 C 100.31586 60.654453 100.32092 61.432578 100.58203 62.111328 C 100.84314 62.790078 101.36031 63.369453 102.07031 63.689453 L 109.13086 66.820312 C 109.36963 69.854046 109.34082 72.741141 109.03125 75.5 C 108.72168 78.258859 108.13125 80.89 107.24805 83.414062 C 106.36485 85.938125 105.18916 88.354249 103.70703 90.683594 C 102.2249 93.012938 100.43643 95.254984 98.330078 97.429688 L 91.759766 96.019531 C 90.994766 95.854531 90.234785 96.017187 89.625 96.412109 C 89.015215 96.807031 88.555625 97.434219 88.390625 98.199219 L 86.830078 105.48047 C 84.292288 106.63008 81.660188 107.48849 78.982422 108.05664 C 76.304656 108.62479 73.581979 108.90347 70.859375 108.89062 C 68.136771 108.87778 65.414493 108.57384 62.742188 107.98047 C 60.069882 107.3871 57.446792 106.5035 54.919922 105.33008 L 53.359375 98.050781 C 53.194375 97.285781 52.73625 96.657129 52.128906 96.261719 C 51.521563 95.866309 50.765 95.704141 50 95.869141 L 43.570312 97.25 C 41.748728 95.11428 40.127883 92.967317 38.734375 90.738281 C 37.340867 88.509246 36.174942 86.197398 35.265625 83.730469 C 34.356308 81.26354 33.702996 78.642368 33.333984 75.792969 C 32.964973 72.943569 32.880014 69.866682 33.107422 66.490234 L 39.808594 63.509766 C 40.52357 63.189766 41.043568 62.611856 41.304688 61.935547 C 41.565807 61.259238 41.568047 60.484531 41.248047 59.769531 L 37.544922 52.335938 C 38.354537 50.931772 39.222267 49.607318 40.138672 48.361328 C 41.055076 47.115338 42.019911 45.947229 43.027344 44.855469 C 45.04221 42.671948 47.223397 40.793406 49.507812 39.203125 C 51.792228 37.612844 54.179543 36.311815 56.607422 35.283203 C 59.035301 34.254591 61.503963 33.498514 63.949219 33 z "
     id="path4527" />
  <path
     style="fill:#cccccc"
     d="m 70.98,27.88 a 3.1,3.11 0 0 1 3.02,3.11 3.11,3.11 0 0 1 -6.22,0 3.11,3.11 0 0 1 3.2,-3.11 z"
     id="path4525" />
  <path
     style="fill:#cccccc"
     d="m 33.9,56.02 a 3.11,3.11 0 0 1 3.02,3.11 3.11,3.11 0 0 1 -6.22,0 3.11,3.11 0 0 1 3.2,-3.11 z"
     id="path4521" />
  <path
     style="fill:#cccccc"
     d="m 108.05,56.16 a 3.11,3.11 0 0 1 3.02,3.11 3.11,3.11 0 0 1 -6.22,0 3.11,3.11 0 0 1 3.2,-3.11 z"
     id="path4519" />
  <path
     style="fill:#cccccc"
     d="m 47.95,99.81 a 3.11,3.11 0 0 1 3.02,3.11 3.11,3.11 0 0 1 -6.22,0 3.11,3.11 0 0 1 3.2,-3.11 z"
     id="path4511" />
  <path
     style="fill:#cccccc"
     d="m 94,99.95 a 3.11,3.11 0 0 1 3.02,3.11 3.11,3.11 0 0 1 -6.22,0 3.11,3.11 0 0 1 3.2,-3.11 z"
     id="path2" />
  <path
     d="m115.68 70.95a44.63 44.63 0 0 1 -44.63 44.63 44.63 44.63 0 0 1 -44.63-44.63 44.63 44.63 0 0 1 44.63-44.63 44.63 44.63 0 0 1 44.63 44.63zm-.84-4.31 6.96 4.31-6.96 4.31 5.98 5.59-7.66 2.87 4.78 6.65-8.09 1.32 3.4 7.46-8.19-.29 1.88 7.98-7.98-1.88.29 8.19-7.46-3.4-1.32 8.09-6.65-4.78-2.87 7.66-5.59-5.98-4.31 6.96-4.31-6.96-5.59 5.98-2.87-7.66-6.65 4.78-1.32-8.09-7.46 3.4.29-8.19-7.98 1.88 1.88-7.98-8.19.29 3.4-7.46-8.09-1.32 4.78-6.65-7.66-2.87 5.98-5.59-6.96-4.31 6.96-4.31-5.98-5.59 7.66-2.87-4.78-6.65 8.09-1.32-3.4-7.46 8.19.29-1.88-7.98 7.98 1.88-.29-8.19 7.46 3.4 1.32-8.09 6.65 4.78 2.87-7.66 5.59 5.98 4.31-6.96 4.31 6.96 5.59-5.98 2.87 7.66 6.65-4.78 1.32 8.09 7.46-3.4-.29 8.19 7.98-1.88-1.88 7.98 8.19-.29-3.4 7.46 8.09 1.32-4.78 6.65 7.66 2.87z"
     fill-rule="evenodd"
     stroke="#000"
     stroke-linecap="round"
     stroke-linejoin="round"
     stroke-width="3"
     id="path4" />
</svg>
